# xmcd CD database file
#
# Track frame offsets:
#	150
#	19093
#	46068
#	69646
#	88223
#	115513
#	136873
#	158148
#	173838
#	192878
#	209983
#	234433
#	258994
#	272954
#	296944
#
# Disc length: 4415 seconds
#
# Revision: 3
# Processed by: cddbd v1.5.1PL0 Copyright (c) Steve Scherf et al.
# Submitted via: CDex 1.51
#
DISCID=de113d0f
DTITLE=B-TRIBE - star profile
DYEAR=2000
DGENRE=New Age
TTITLE0=Nadie Entiende
TTITLE1=Fiesta Fatal! (Album Edit)
TTITLE2=Sometimes
TTITLE3=Hablame
TTITLE4=Sensual Sensual
TTITLE5=Lo Siento
TTITLE6=Una Vez Mas
TTITLE7=La Guapa
TTITLE8=Don't Be Emotional
TTITLE9=Desesperada
TTITLE10=You Won't See Me Cry
TTITLE11=Ahoy Ahoy
TTITLE12=Ultima Cancion
TTITLE13=Fiesta Fatal! (Reprise)
TTITLE14=Fiesta Fatal! (Barcelona Megamix)
EXTD=YEAR: 2000
EXTT0=
EXTT1=
EXTT2=
EXTT3=
EXTT4=
EXTT5=
EXTT6=
EXTT7=
EXTT8=
EXTT9=
EXTT10=
EXTT11=
EXTT12=
EXTT13=
EXTT14=
PLAYORDER=
